# xmcd
#
# Track frame offsets: 
#        150
#        8418
#        16504
#        27759
#        40502
#        51524
#        62460
#        72138
#        82091
#        94837
#        103945
#        112081
#        123996
#        133992
#        144018
#        156703
#        172746
#        185035
#        198032
#        212044
#        224827
#        236667
#        247190
#        263890
#        274672
#        289686
#        302055
#        314173
#        329399
#        340455
#        352111
#
# Disc length: 4852 seconds
#
# Revision: 0
# Processed by: cddbd v1.5.2PL0 Copyright (c) Steve Scherf et al.
# Submitted via: ExactAudioCopy v0.99pb4
#
DISCID=db12f21f
DTITLE=Red Simpson - Hello, I'm Red Simpson - Disc 3
DYEAR=2012
DGENRE=Country
TTITLE0=Good Old Truckin' Girl
TTITLE1=Truckin' Man
TTITLE2=Just Kept On Truckin'
TTITLE3=Gas, Food And Lodging
TTITLE4=Lady Of The Road
TTITLE5=Country Western Truck Drivin' Singer
TTITLE6=You're The First
TTITLE7=Truckin' On Down The Road
TTITLE8=Ole Ben
TTITLE9=Hold On Ma'm (You Got Yourself A Honker)
TTITLE10=Fur Coats And Fancy Clothes
TTITLE11=Certainly
TTITLE12=The Ballad Of Billy Jones
TTITLE13=Those Forgotten Trains
TTITLE14=You're All Over My Mind
TTITLE15=Jericho Jones
TTITLE16=Milesaver Man
TTITLE17=Awful Lot To Learn About Truck Drivin'
TTITLE18=You Still Got A Hold On Me
TTITLE19=Gas, Food And Lodging
TTITLE20=Feelin' Like Tarzan
TTITLE21=Truckin' Trees For Christmas
TTITLE22=Blue Blue Christmas (For This Truck Drivin' Man)
TTITLE23=Chistmas Wheels
TTITLE24=The Old Christmas Truck
TTITLE25=Toys For Tots
TTITLE26=Santa's Comin' In A Big Ol' Truck
TTITLE27=Dad Will Be Home For Christmas
TTITLE28=Little Toy Trucks
TTITLE29=Gone Home For Christmas
TTITLE30=Out On The Road For Christmas
EXTD=
EXTT0=
EXTT1=
EXTT2=
EXTT3=
EXTT4=
EXTT5=
EXTT6=
EXTT7=
EXTT8=
EXTT9=
EXTT10=
EXTT11=
EXTT12=
EXTT13=
EXTT14=
EXTT15=
EXTT16=
EXTT17=
EXTT18=
EXTT19=
EXTT20=
EXTT21=
EXTT22=
EXTT23=
EXTT24=
EXTT25=
EXTT26=
EXTT27=
EXTT28=
EXTT29=
EXTT30=
PLAYORDER=
